<?xml version="1.0" encoding="UTF-8" standalone="no"?>
<!DOCTYPE svg PUBLIC "-//W3C//DTD SVG 1.1//EN" "http://www.w3.org/Graphics/SVG/1.1/DTD/svg11.dtd">
<svg width="100%" height="100%" viewBox="0 0 60 60" version="1.1" xmlns="http://www.w3.org/2000/svg" xmlns:xlink="http://www.w3.org/1999/xlink" xml:space="preserve" xmlns:serif="http://www.serif.com/" style="fill-rule:evenodd;clip-rule:evenodd;stroke-linejoin:round;stroke-miterlimit:2;">
    <g transform="matrix(1.63387,0,0,1.63387,-10.5937,-6.81765)">
        <g opacity="0.5">
            <g id="Layer1">
                <path d="M24.845,4.173C34.979,4.173 43.206,12.4 43.206,22.534C43.206,32.668 34.979,40.895 24.845,40.895C14.711,40.895 6.484,32.668 6.484,22.534C6.484,12.4 14.711,4.173 24.845,4.173ZM24.845,4.907C34.574,4.907 42.472,12.805 42.472,22.534C42.472,32.262 34.574,40.161 24.845,40.161C15.117,40.161 7.218,32.262 7.218,22.534C7.218,12.805 15.117,4.907 24.845,4.907Z" style="fill:white;"/>
            </g>
        </g>
    </g>
    <g transform="matrix(0.609227,0,0,0.609123,12.6049,12.8052)">
        <g opacity="0.5">
            <path d="M57.044,6.862C57.606,6.462 57.739,5.68 57.342,5.114C56.944,4.549 56.167,4.415 55.606,4.815L52.495,7.031C51.934,7.431 51.8,8.213 52.198,8.778C52.44,9.124 52.825,9.308 53.215,9.308C53.464,9.308 53.715,9.233 53.934,9.078L57.044,6.862ZM48.804,6.141C48.948,6.196 49.096,6.222 49.242,6.222C49.746,6.222 50.22,5.912 50.408,5.409L51.749,1.818C51.991,1.17 51.665,0.447 51.021,0.203C50.377,-0.041 49.659,0.288 49.417,0.936L48.076,4.527C47.834,5.175 48.16,5.898 48.804,6.141ZM58.593,11.622L58.567,11.622L54.758,11.654C54.07,11.668 53.524,12.199 53.538,12.891C53.552,13.575 54.107,14.13 54.783,14.13L54.809,14.13L58.618,14.064C59.306,14.05 59.852,13.493 59.838,12.801C59.824,12.117 59.269,11.622 58.593,11.622Z" style="fill:white;fill-rule:nonzero;"/>
            <path d="M37.191,6.689C37.731,6.146 38.443,5.874 39.155,5.874C39.968,5.874 40.781,6.228 41.338,6.937C42.221,8.06 42.067,9.691 41.06,10.704L39.778,11.995C39.58,12.128 39.388,12.27 39.208,12.43C39.062,11.599 38.717,10.795 38.167,10.096C37.491,9.236 36.588,8.624 35.577,8.314L37.191,6.689ZM28.529,3.664C29.069,3.12 29.781,2.848 30.493,2.848C31.306,2.848 32.119,3.203 32.676,3.911C33.559,5.035 33.405,6.666 32.398,7.679L17.676,22.347L17.628,20.65C17.615,19.015 16.86,17.554 15.685,16.595L28.529,3.664ZM0.625,36.989C0.492,36.554 0.508,35.733 0.906,35.267L3.456,32.283C3.457,32.282 4.338,25.838 6.099,12.95C6.099,11.427 7.336,10.181 8.849,10.181C10.361,10.181 11.599,11.427 11.599,12.95L11.67,15.465C9.182,15.809 7.244,17.917 7.149,20.493L4.628,38.948L3.895,39.806C3.045,39.493 2.378,39.146 1.892,38.766C1.164,38.196 0.758,37.424 0.625,36.989Z" style="fill:white;fill-rule:nonzero;"/>
            <path d="M49.607,36.894L42.418,44.132C36.278,50.313 29.86,55.274 24.223,56.511C24.051,56.549 23.89,56.622 23.751,56.729L20.501,59.242C20.291,59.405 20.167,59.618 19.503,59.618C18.838,59.618 13.016,55.83 10.36,53.285C7.966,50.991 3.774,43.955 4.445,43.008L6.994,40.024C6.995,40.023 7.876,33.579 9.637,20.691C9.637,19.169 10.874,17.923 12.387,17.923C13.899,17.923 15.137,19.169 15.137,20.691L15.267,25.252C15.288,26.01 15.908,26.503 16.552,26.503C16.866,26.503 17.187,26.386 17.446,26.125L32.067,11.405C32.607,10.861 33.319,10.59 34.031,10.59C34.844,10.59 35.657,10.944 36.214,11.653C37.098,12.776 36.943,14.407 35.936,15.42L25.864,25.56C25.341,26.087 25.341,26.94 25.864,27.466C26.129,27.732 26.476,27.866 26.823,27.866C27.169,27.866 27.517,27.732 27.781,27.466L40.729,14.431C41.269,13.887 41.981,13.615 42.693,13.615C43.506,13.615 44.319,13.97 44.876,14.678C45.76,15.802 45.605,17.433 44.598,18.446L31.711,31.42C31.181,31.954 31.181,32.818 31.711,33.352C31.972,33.615 32.314,33.746 32.656,33.746C32.999,33.746 33.341,33.615 33.602,33.352L43.735,23.152C44.275,22.608 44.987,22.336 45.699,22.336C46.512,22.336 47.324,22.69 47.882,23.399C48.765,24.522 48.61,26.153 47.603,27.166L37.567,37.271C37.025,37.817 37.025,38.702 37.567,39.247C37.833,39.516 38.162,39.642 38.49,39.642C38.818,39.642 39.147,39.516 39.397,39.264L45.62,33C46.18,32.435 46.931,32.137 47.679,32.137C48.274,32.137 48.868,32.326 49.362,32.72C50.682,33.772 50.764,35.73 49.607,36.894Z" style="fill:white;fill-rule:nonzero;"/>
        </g>
    </g>
</svg>
